<?xml version="1.0" standalone="no"?>
<svg xmlns:xlink="http://www.w3.org/1999/xlink" id="wave" style="transform:rotate(0deg); transition: 0.3s" viewBox="0 0 1440 490" version="1.1" xmlns="http://www.w3.org/2000/svg"><defs><linearGradient id="sw-gradient-0" x1="0" x2="0" y1="1" y2="0"><stop stop-color="rgba(6, 95, 70, 1)" offset="0%"/><stop stop-color="rgba(34, 197, 94, 1)" offset="100%"/></linearGradient></defs><path style="transform:translate(0, 0px); opacity:1" fill="url(#sw-gradient-0)" d="M0,49L60,40.8C120,33,240,16,360,40.8C480,65,600,131,720,187.8C840,245,960,294,1080,285.8C1200,278,1320,212,1440,228.7C1560,245,1680,343,1800,326.7C1920,310,2040,180,2160,106.2C2280,33,2400,16,2520,81.7C2640,147,2760,294,2880,326.7C3000,359,3120,278,3240,212.3C3360,147,3480,98,3600,130.7C3720,163,3840,278,3960,310.3C4080,343,4200,294,4320,261.3C4440,229,4560,212,4680,212.3C4800,212,4920,229,5040,245C5160,261,5280,278,5400,310.3C5520,343,5640,392,5760,359.3C5880,327,6000,212,6120,138.8C6240,65,6360,33,6480,65.3C6600,98,6720,196,6840,204.2C6960,212,7080,131,7200,114.3C7320,98,7440,147,7560,163.3C7680,180,7800,163,7920,163.3C8040,163,8160,180,8280,212.3C8400,245,8520,294,8580,318.5L8640,343L8640,490L8580,490C8520,490,8400,490,8280,490C8160,490,8040,490,7920,490C7800,490,7680,490,7560,490C7440,490,7320,490,7200,490C7080,490,6960,490,6840,490C6720,490,6600,490,6480,490C6360,490,6240,490,6120,490C6000,490,5880,490,5760,490C5640,490,5520,490,5400,490C5280,490,5160,490,5040,490C4920,490,4800,490,4680,490C4560,490,4440,490,4320,490C4200,490,4080,490,3960,490C3840,490,3720,490,3600,490C3480,490,3360,490,3240,490C3120,490,3000,490,2880,490C2760,490,2640,490,2520,490C2400,490,2280,490,2160,490C2040,490,1920,490,1800,490C1680,490,1560,490,1440,490C1320,490,1200,490,1080,490C960,490,840,490,720,490C600,490,480,490,360,490C240,490,120,490,60,490L0,490Z"/><defs><linearGradient id="sw-gradient-1" x1="0" x2="0" y1="1" y2="0"><stop stop-color="rgba(34, 197, 94, 1)" offset="0%"/><stop stop-color="rgba(5, 150, 105, 1)" offset="100%"/></linearGradient></defs><path style="transform:translate(0, 50px); opacity:0.9" fill="url(#sw-gradient-1)" d="M0,49L60,73.5C120,98,240,147,360,196C480,245,600,294,720,285.8C840,278,960,212,1080,212.3C1200,212,1320,278,1440,285.8C1560,294,1680,245,1800,253.2C1920,261,2040,327,2160,367.5C2280,408,2400,425,2520,375.7C2640,327,2760,212,2880,196C3000,180,3120,261,3240,277.7C3360,294,3480,245,3600,261.3C3720,278,3840,359,3960,334.8C4080,310,4200,180,4320,163.3C4440,147,4560,245,4680,277.7C4800,310,4920,278,5040,261.3C5160,245,5280,245,5400,277.7C5520,310,5640,376,5760,351.2C5880,327,6000,212,6120,196C6240,180,6360,261,6480,245C6600,229,6720,114,6840,98C6960,82,7080,163,7200,212.3C7320,261,7440,278,7560,261.3C7680,245,7800,196,7920,196C8040,196,8160,245,8280,285.8C8400,327,8520,359,8580,375.7L8640,392L8640,490L8580,490C8520,490,8400,490,8280,490C8160,490,8040,490,7920,490C7800,490,7680,490,7560,490C7440,490,7320,490,7200,490C7080,490,6960,490,6840,490C6720,490,6600,490,6480,490C6360,490,6240,490,6120,490C6000,490,5880,490,5760,490C5640,490,5520,490,5400,490C5280,490,5160,490,5040,490C4920,490,4800,490,4680,490C4560,490,4440,490,4320,490C4200,490,4080,490,3960,490C3840,490,3720,490,3600,490C3480,490,3360,490,3240,490C3120,490,3000,490,2880,490C2760,490,2640,490,2520,490C2400,490,2280,490,2160,490C2040,490,1920,490,1800,490C1680,490,1560,490,1440,490C1320,490,1200,490,1080,490C960,490,840,490,720,490C600,490,480,490,360,490C240,490,120,490,60,490L0,490Z"/><defs><linearGradient id="sw-gradient-2" x1="0" x2="0" y1="1" y2="0"><stop stop-color="rgba(34, 197, 94, 1)" offset="0%"/><stop stop-color="rgba(20, 184, 166, 1)" offset="100%"/></linearGradient></defs><path style="transform:translate(0, 100px); opacity:0.8" fill="url(#sw-gradient-2)" d="M0,196L60,171.5C120,147,240,98,360,130.7C480,163,600,278,720,310.3C840,343,960,294,1080,236.8C1200,180,1320,114,1440,138.8C1560,163,1680,278,1800,269.5C1920,261,2040,131,2160,65.3C2280,0,2400,0,2520,24.5C2640,49,2760,98,2880,171.5C3000,245,3120,343,3240,351.2C3360,359,3480,278,3600,277.7C3720,278,3840,359,3960,375.7C4080,392,4200,343,4320,334.8C4440,327,4560,359,4680,318.5C4800,278,4920,163,5040,106.2C5160,49,5280,49,5400,114.3C5520,180,5640,310,5760,310.3C5880,310,6000,180,6120,155.2C6240,131,6360,212,6480,236.8C6600,261,6720,229,6840,204.2C6960,180,7080,163,7200,130.7C7320,98,7440,49,7560,65.3C7680,82,7800,163,7920,163.3C8040,163,8160,82,8280,106.2C8400,131,8520,261,8580,326.7L8640,392L8640,490L8580,490C8520,490,8400,490,8280,490C8160,490,8040,490,7920,490C7800,490,7680,490,7560,490C7440,490,7320,490,7200,490C7080,490,6960,490,6840,490C6720,490,6600,490,6480,490C6360,490,6240,490,6120,490C6000,490,5880,490,5760,490C5640,490,5520,490,5400,490C5280,490,5160,490,5040,490C4920,490,4800,490,4680,490C4560,490,4440,490,4320,490C4200,490,4080,490,3960,490C3840,490,3720,490,3600,490C3480,490,3360,490,3240,490C3120,490,3000,490,2880,490C2760,490,2640,490,2520,490C2400,490,2280,490,2160,490C2040,490,1920,490,1800,490C1680,490,1560,490,1440,490C1320,490,1200,490,1080,490C960,490,840,490,720,490C600,490,480,490,360,490C240,490,120,490,60,490L0,490Z"/><defs><linearGradient id="sw-gradient-3" x1="0" x2="0" y1="1" y2="0"><stop stop-color="rgba(5, 150, 105, 1)" offset="0%"/><stop stop-color="rgba(34, 197, 94, 1)" offset="100%"/></linearGradient></defs><path style="transform:translate(0, 150px); opacity:0.7" fill="url(#sw-gradient-3)" d="M0,147L60,163.3C120,180,240,212,360,187.8C480,163,600,82,720,57.2C840,33,960,65,1080,98C1200,131,1320,163,1440,147C1560,131,1680,65,1800,32.7C1920,0,2040,0,2160,0C2280,0,2400,0,2520,49C2640,98,2760,196,2880,245C3000,294,3120,294,3240,302.2C3360,310,3480,327,3600,343C3720,359,3840,376,3960,334.8C4080,294,4200,196,4320,204.2C4440,212,4560,327,4680,326.7C4800,327,4920,212,5040,163.3C5160,114,5280,131,5400,138.8C5520,147,5640,147,5760,130.7C5880,114,6000,82,6120,114.3C6240,147,6360,245,6480,302.2C6600,359,6720,376,6840,383.8C6960,392,7080,392,7200,326.7C7320,261,7440,131,7560,122.5C7680,114,7800,229,7920,245C8040,261,8160,180,8280,130.7C8400,82,8520,65,8580,57.2L8640,49L8640,490L8580,490C8520,490,8400,490,8280,490C8160,490,8040,490,7920,490C7800,490,7680,490,7560,490C7440,490,7320,490,7200,490C7080,490,6960,490,6840,490C6720,490,6600,490,6480,490C6360,490,6240,490,6120,490C6000,490,5880,490,5760,490C5640,490,5520,490,5400,490C5280,490,5160,490,5040,490C4920,490,4800,490,4680,490C4560,490,4440,490,4320,490C4200,490,4080,490,3960,490C3840,490,3720,490,3600,490C3480,490,3360,490,3240,490C3120,490,3000,490,2880,490C2760,490,2640,490,2520,490C2400,490,2280,490,2160,490C2040,490,1920,490,1800,490C1680,490,1560,490,1440,490C1320,490,1200,490,1080,490C960,490,840,490,720,490C600,490,480,490,360,490C240,490,120,490,60,490L0,490Z"/></svg>