<svg id="visual" viewBox="0 0 900 600" width="900" height="600" xmlns="http://www.w3.org/2000/svg" xmlns:xlink="http://www.w3.org/1999/xlink" version="1.1"><path d="M0 390L21.5 409.3C43 428.7 86 467.3 128.8 481.5C171.7 495.7 214.3 485.3 257.2 470.7C300 456 343 437 385.8 441.8C428.7 446.7 471.3 475.3 514.2 477.8C557 480.3 600 456.7 642.8 452.7C685.7 448.7 728.3 464.3 771.2 476.5C814 488.7 857 497.3 878.5 501.7L900 506L900 601L878.5 601C857 601 814 601 771.2 601C728.3 601 685.7 601 642.8 601C600 601 557 601 514.2 601C471.3 601 428.7 601 385.8 601C343 601 300 601 257.2 601C214.3 601 171.7 601 128.8 601C86 601 43 601 21.5 601L0 601Z" fill="#22c55e" stroke-linecap="round" stroke-linejoin="miter"></path></svg>